<svg xmlns="http://www.w3.org/2000/svg" width="848" height="384" class="svgbob"><style>.svgbob line, .svgbob path, .svgbob circle, .svgbob rect, .svgbob polygon {
    stroke: black;
    stroke-width: 2;
    stroke-opacity: 1;
    fill-opacity: 1;
    stroke-linecap: round;
    stroke-linejoin: miter;
}
.svgbob text {
    white-space: pre;
    fill: black;
    font-family: Iosevka Fixed, monospace;
    font-size: 14px;
}
.svgbob rect.backdrop {
    stroke: none;
    fill: white;
}
.svgbob .broken {
    stroke-dasharray: 8;
}
.svgbob .filled {
    fill: black;
}
.svgbob .bg_filled {
    fill: white;
    stroke-width: 1;
}
.svgbob .nofill {
    fill: white;
}
.svgbob .end_marked_arrow {
    marker-end: url(#arrow);
}
.svgbob .start_marked_arrow {
    marker-start: url(#arrow);
}
.svgbob .end_marked_diamond {
    marker-end: url(#diamond);
}
.svgbob .start_marked_diamond {
    marker-start: url(#diamond);
}
.svgbob .end_marked_circle {
    marker-end: url(#circle);
}
.svgbob .start_marked_circle {
    marker-start: url(#circle);
}
.svgbob .end_marked_open_circle {
    marker-end: url(#open_circle);
}
.svgbob .start_marked_open_circle {
    marker-start: url(#open_circle);
}
.svgbob .end_marked_big_open_circle {
    marker-end: url(#big_open_circle);
}
.svgbob .start_marked_big_open_circle {
    marker-start: url(#big_open_circle);
}<!--separator--></style><defs><marker id="arrow" viewBox="-2 -2 8 8" refX="4" refY="2" markerWidth="7" markerHeight="7" orient="auto-start-reverse"><polygon points="0,0 0,4 4,2 0,0"></polygon></marker><marker id="diamond" viewBox="-2 -2 8 8" refX="4" refY="2" markerWidth="7" markerHeight="7" orient="auto-start-reverse"><polygon points="0,2 2,0 4,2 2,4 0,2"></polygon></marker><marker id="circle" viewBox="0 0 8 8" refX="4" refY="4" markerWidth="7" markerHeight="7" orient="auto-start-reverse"><circle cx="4" cy="4" r="2" class="filled"></circle></marker><marker id="open_circle" viewBox="0 0 8 8" refX="4" refY="4" markerWidth="7" markerHeight="7" orient="auto-start-reverse"><circle cx="4" cy="4" r="2" class="bg_filled"></circle></marker><marker id="big_open_circle" viewBox="0 0 8 8" refX="4" refY="4" markerWidth="7" markerHeight="7" orient="auto-start-reverse"><circle cx="4" cy="4" r="3" class="bg_filled"></circle></marker></defs><rect class="backdrop" x="0" y="0" width="848" height="384"></rect><text x="306" y="28" >Analysis</text><line x1="376" y1="24" x2="384" y2="24" class="solid"></line><text x="394" y="28" >100%</text><text x="162" y="92" >Practices</text><line x1="240" y1="88" x2="248" y2="88" class="solid"></line><text x="258" y="92" >50%</text><text x="450" y="92" >Attacks</text><line x1="512" y1="88" x2="520" y2="88" class="solid"></line><text x="530" y="92" >50%</text><text x="26" y="156" >Activity</text><line x1="96" y1="152" x2="104" y2="152" class="solid"></line><text x="114" y="156" >20%</text><text x="578" y="156" >Commit</text><line x1="632" y1="152" x2="640" y2="152" class="solid"></line><text x="650" y="156" >50%</text><text x="66" y="204" >Binary</text><line x1="120" y1="200" x2="128" y2="200" class="solid"></line><text x="138" y="204" >20%</text><text x="450" y="204" >Typo</text><line x1="488" y1="200" x2="496" y2="200" class="solid"></line><text x="506" y="204" >50%</text><text x="698" y="220" >Entropy</text><line x1="760" y1="216" x2="768" y2="216" class="solid"></line><text x="778" y="220" >33.33%</text><text x="114" y="252" >Fuzz</text><line x1="152" y1="248" x2="160" y2="248" class="solid"></line><text x="170" y="252" >20%</text><text x="634" y="268" >Churn</text><line x1="680" y1="264" x2="688" y2="264" class="solid"></line><text x="698" y="268" >33.33%</text><text x="122" y="300" >Identity</text><line x1="192" y1="296" x2="200" y2="296" class="solid"></line><text x="210" y="300" >20%</text><text x="578" y="316" >Affiliation</text><line x1="672" y1="312" x2="680" y2="312" class="solid"></line><text x="690" y="316" >33.33%</text><text x="186" y="348" >Review</text><line x1="240" y1="344" x2="248" y2="344" class="solid"></line><text x="258" y="348" >20%</text><g><line x1="292" y1="8" x2="436" y2="8" class="solid"></line><line x1="292" y1="8" x2="292" y2="360" class="solid"></line><line x1="436" y1="8" x2="436" y2="216" class="solid"></line><line x1="292" y1="40" x2="436" y2="40" class="solid"></line><line x1="148" y1="72" x2="292" y2="72" class="solid"></line><line x1="148" y1="72" x2="148" y2="168" class="solid"></line><line x1="436" y1="72" x2="564" y2="72" class="solid"></line><line x1="564" y1="72" x2="564" y2="328" class="solid"></line><line x1="148" y1="104" x2="292" y2="104" class="solid"></line><line x1="180" y1="104" x2="180" y2="216" class="solid"></line><line x1="212" y1="104" x2="212" y2="264" class="solid"></line><line x1="244" y1="104" x2="244" y2="312" class="solid"></line><line x1="436" y1="104" x2="564" y2="104" class="solid"></line><line x1="12" y1="136" x2="148" y2="136" class="solid"></line><line x1="12" y1="136" x2="12" y2="168" class="solid"></line><line x1="564" y1="136" x2="684" y2="136" class="solid"></line><line x1="684" y1="136" x2="684" y2="232" class="solid"></line><line x1="12" y1="168" x2="148" y2="168" class="solid"></line><line x1="564" y1="168" x2="684" y2="168" class="solid"></line><line x1="620" y1="168" x2="620" y2="280" class="solid"></line><line x1="52" y1="184" x2="180" y2="184" class="solid"></line><line x1="52" y1="184" x2="52" y2="216" class="solid"></line><line x1="436" y1="184" x2="540" y2="184" class="solid"></line><line x1="540" y1="184" x2="540" y2="216" class="solid"></line><line x1="684" y1="200" x2="836" y2="200" class="solid"></line><line x1="836" y1="200" x2="836" y2="232" class="solid"></line><line x1="52" y1="216" x2="180" y2="216" class="solid"></line><line x1="436" y1="216" x2="540" y2="216" class="solid"></line><line x1="100" y1="232" x2="212" y2="232" class="solid"></line><line x1="100" y1="232" x2="100" y2="264" class="solid"></line><line x1="684" y1="232" x2="836" y2="232" class="solid"></line><line x1="620" y1="248" x2="756" y2="248" class="solid"></line><line x1="756" y1="248" x2="756" y2="280" class="solid"></line><line x1="100" y1="264" x2="212" y2="264" class="solid"></line><line x1="108" y1="280" x2="244" y2="280" class="solid"></line><line x1="108" y1="280" x2="108" y2="312" class="solid"></line><line x1="620" y1="280" x2="756" y2="280" class="solid"></line><line x1="564" y1="296" x2="748" y2="296" class="solid"></line><line x1="748" y1="296" x2="748" y2="328" class="solid"></line><line x1="108" y1="312" x2="244" y2="312" class="solid"></line><line x1="172" y1="328" x2="292" y2="328" class="solid"></line><line x1="172" y1="328" x2="172" y2="360" class="solid"></line><line x1="564" y1="328" x2="748" y2="328" class="solid"></line><line x1="172" y1="360" x2="292" y2="360" class="solid"></line></g></svg>