<svg xmlns="http://www.w3.org/2000/svg" width="720" height="384" class="svgbob"><style>.svgbob line, .svgbob path, .svgbob circle, .svgbob rect, .svgbob polygon {
    stroke: black;
    stroke-width: 2;
    stroke-opacity: 1;
    fill-opacity: 1;
    stroke-linecap: round;
    stroke-linejoin: miter;
}
.svgbob text {
    white-space: pre;
    fill: black;
    font-family: Iosevka Fixed, monospace;
    font-size: 14px;
}
.svgbob rect.backdrop {
    stroke: none;
    fill: white;
}
.svgbob .broken {
    stroke-dasharray: 8;
}
.svgbob .filled {
    fill: black;
}
.svgbob .bg_filled {
    fill: white;
    stroke-width: 1;
}
.svgbob .nofill {
    fill: white;
}
.svgbob .end_marked_arrow {
    marker-end: url(#arrow);
}
.svgbob .start_marked_arrow {
    marker-start: url(#arrow);
}
.svgbob .end_marked_diamond {
    marker-end: url(#diamond);
}
.svgbob .start_marked_diamond {
    marker-start: url(#diamond);
}
.svgbob .end_marked_circle {
    marker-end: url(#circle);
}
.svgbob .start_marked_circle {
    marker-start: url(#circle);
}
.svgbob .end_marked_open_circle {
    marker-end: url(#open_circle);
}
.svgbob .start_marked_open_circle {
    marker-start: url(#open_circle);
}
.svgbob .end_marked_big_open_circle {
    marker-end: url(#big_open_circle);
}
.svgbob .start_marked_big_open_circle {
    marker-start: url(#big_open_circle);
}<!--separator--></style><defs><marker id="arrow" viewBox="-2 -2 8 8" refX="4" refY="2" markerWidth="7" markerHeight="7" orient="auto-start-reverse"><polygon points="0,0 0,4 4,2 0,0"></polygon></marker><marker id="diamond" viewBox="-2 -2 8 8" refX="4" refY="2" markerWidth="7" markerHeight="7" orient="auto-start-reverse"><polygon points="0,2 2,0 4,2 2,4 0,2"></polygon></marker><marker id="circle" viewBox="0 0 8 8" refX="4" refY="4" markerWidth="7" markerHeight="7" orient="auto-start-reverse"><circle cx="4" cy="4" r="2" class="filled"></circle></marker><marker id="open_circle" viewBox="0 0 8 8" refX="4" refY="4" markerWidth="7" markerHeight="7" orient="auto-start-reverse"><circle cx="4" cy="4" r="2" class="bg_filled"></circle></marker><marker id="big_open_circle" viewBox="0 0 8 8" refX="4" refY="4" markerWidth="7" markerHeight="7" orient="auto-start-reverse"><circle cx="4" cy="4" r="3" class="bg_filled"></circle></marker></defs><rect class="backdrop" x="0" y="0" width="720" height="384"></rect><text x="274" y="28" >Analysis</text><line x1="344" y1="24" x2="352" y2="24" class="solid"></line><text x="362" y="28" >1</text><text x="146" y="92" >Practices</text><line x1="224" y1="88" x2="232" y2="88" class="solid"></line><text x="242" y="92" >1</text><text x="394" y="92" >Attacks</text><line x1="456" y1="88" x2="464" y2="88" class="solid"></line><text x="474" y="92" >1</text><text x="26" y="156" >Activity</text><line x1="96" y1="152" x2="104" y2="152" class="solid"></line><text x="114" y="156" >1</text><text x="506" y="156" >Commit</text><line x1="560" y1="152" x2="568" y2="152" class="solid"></line><text x="578" y="156" >1</text><text x="50" y="204" >Binary</text><line x1="104" y1="200" x2="112" y2="200" class="solid"></line><text x="122" y="204" >1</text><text x="394" y="204" >Typo</text><line x1="432" y1="200" x2="440" y2="200" class="solid"></line><text x="450" y="204" >1</text><text x="610" y="220" >Entropy</text><line x1="672" y1="216" x2="680" y2="216" class="solid"></line><text x="690" y="220" >1</text><text x="114" y="252" >Fuzz</text><line x1="152" y1="248" x2="160" y2="248" class="solid"></line><text x="170" y="252" >1</text><text x="554" y="268" >Churn</text><line x1="600" y1="264" x2="608" y2="264" class="solid"></line><text x="618" y="268" >1</text><text x="122" y="300" >Identity</text><line x1="192" y1="296" x2="200" y2="296" class="solid"></line><text x="210" y="300" >1</text><text x="506" y="316" >Affiliation</text><line x1="600" y1="312" x2="608" y2="312" class="solid"></line><text x="618" y="316" >1</text><text x="170" y="348" >Review</text><line x1="224" y1="344" x2="232" y2="344" class="solid"></line><text x="242" y="348" >1</text><g><line x1="260" y1="8" x2="380" y2="8" class="solid"></line><line x1="260" y1="8" x2="260" y2="360" class="solid"></line><line x1="380" y1="8" x2="380" y2="216" class="solid"></line><line x1="260" y1="40" x2="380" y2="40" class="solid"></line><line x1="132" y1="72" x2="260" y2="72" class="solid"></line><line x1="132" y1="72" x2="132" y2="168" class="solid"></line><line x1="380" y1="72" x2="492" y2="72" class="solid"></line><line x1="492" y1="72" x2="492" y2="328" class="solid"></line><line x1="132" y1="104" x2="260" y2="104" class="solid"></line><line x1="164" y1="104" x2="164" y2="216" class="solid"></line><line x1="196" y1="104" x2="196" y2="264" class="solid"></line><line x1="228" y1="104" x2="228" y2="312" class="solid"></line><line x1="380" y1="104" x2="492" y2="104" class="solid"></line><line x1="12" y1="136" x2="132" y2="136" class="solid"></line><line x1="12" y1="136" x2="12" y2="168" class="solid"></line><line x1="492" y1="136" x2="596" y2="136" class="solid"></line><line x1="596" y1="136" x2="596" y2="232" class="solid"></line><line x1="12" y1="168" x2="132" y2="168" class="solid"></line><line x1="492" y1="168" x2="596" y2="168" class="solid"></line><line x1="540" y1="168" x2="540" y2="280" class="solid"></line><line x1="36" y1="184" x2="164" y2="184" class="solid"></line><line x1="36" y1="184" x2="36" y2="216" class="solid"></line><line x1="380" y1="184" x2="468" y2="184" class="solid"></line><line x1="468" y1="184" x2="468" y2="216" class="solid"></line><line x1="596" y1="200" x2="708" y2="200" class="solid"></line><line x1="708" y1="200" x2="708" y2="232" class="solid"></line><line x1="36" y1="216" x2="164" y2="216" class="solid"></line><line x1="380" y1="216" x2="468" y2="216" class="solid"></line><line x1="100" y1="232" x2="196" y2="232" class="solid"></line><line x1="100" y1="232" x2="100" y2="264" class="solid"></line><line x1="596" y1="232" x2="708" y2="232" class="solid"></line><line x1="540" y1="248" x2="644" y2="248" class="solid"></line><line x1="644" y1="248" x2="644" y2="280" class="solid"></line><line x1="100" y1="264" x2="196" y2="264" class="solid"></line><line x1="108" y1="280" x2="228" y2="280" class="solid"></line><line x1="108" y1="280" x2="108" y2="312" class="solid"></line><line x1="540" y1="280" x2="644" y2="280" class="solid"></line><line x1="492" y1="296" x2="636" y2="296" class="solid"></line><line x1="636" y1="296" x2="636" y2="328" class="solid"></line><line x1="108" y1="312" x2="228" y2="312" class="solid"></line><line x1="156" y1="328" x2="260" y2="328" class="solid"></line><line x1="156" y1="328" x2="156" y2="360" class="solid"></line><line x1="492" y1="328" x2="636" y2="328" class="solid"></line><line x1="156" y1="360" x2="260" y2="360" class="solid"></line></g></svg>